<svg xmlns="http://www.w3.org/2000/svg" viewBox="0 0 1024 1024" role="img" aria-label="CCM">
  <rect x="64" y="64" width="896" height="896" rx="208" fill="#081416"/>
  <rect x="65.5" y="65.5" width="893" height="893" rx="206.5" fill="none" stroke="#1f3435" stroke-width="3"/>
  <path d="M454 292H350c-70 0-110 40-110 110v220c0 70 40 110 110 110h104" fill="none" stroke="#3fd3a0" stroke-width="88" stroke-linecap="square" stroke-linejoin="round"/>
  <path d="M570 292h104c70 0 110 40 110 110v220c0 70-40 110-110 110H570" fill="none" stroke="#35b7cf" stroke-width="88" stroke-linecap="square" stroke-linejoin="round"/>
  <path d="M394 672V368l118 142 118-142v304" fill="none" stroke="#edf6f2" stroke-width="76" stroke-linecap="square" stroke-linejoin="miter"/>
  <rect x="486" y="484" width="52" height="52" rx="12" fill="#081416" transform="rotate(45 512 510)"/>
</svg>
