<?xml version="1.0" encoding="UTF-8"?>
<svg id="fox-attention" xmlns="http://www.w3.org/2000/svg" viewBox="0 0 128 128" preserveAspectRatio="xMidYMid meet" role="img" aria-label="Fox attention">

  <defs>
    <linearGradient id="fox-attention-body" x1="28" y1="18" x2="96" y2="112" gradientUnits="userSpaceOnUse">
      <stop offset="0" stop-color="#fff3d7"/>
      <stop offset="0.45" stop-color="#ffc77a"/>
      <stop offset="1" stop-color="#f39a4a"/>
    </linearGradient>
    <linearGradient id="fox-attention-accent" x1="36" y1="18" x2="90" y2="104" gradientUnits="userSpaceOnUse">
      <stop offset="0" stop-color="#ff9aa8"/>
      <stop offset="1" stop-color="#70391f"/>
    </linearGradient>
    <radialGradient id="fox-attention-shine" cx="36%" cy="24%" r="68%">
      <stop offset="0" stop-color="#ffffff" stop-opacity=".72"/>
      <stop offset=".48" stop-color="#ffffff" stop-opacity=".12"/>
      <stop offset="1" stop-color="#ffffff" stop-opacity="0"/>
    </radialGradient>
    <filter id="fox-attention-soft-shadow" x="-30%" y="-30%" width="160%" height="170%">
      <feDropShadow dx="0" dy="5" stdDeviation="4" flood-color="#10203a" flood-opacity="0.14"/>
    </filter>
    <filter id="fox-attention-glow" x="-40%" y="-40%" width="180%" height="180%">
      <feGaussianBlur stdDeviation="2.5" result="blur"/>
      <feMerge>
        <feMergeNode in="blur"/>
        <feMergeNode in="SourceGraphic"/>
      </feMerge>
    </filter>
  </defs>

  <style>
    .pet-core { transform-origin:64px 72px; animation: pet-breathe 2.8s ease-in-out infinite; }
    .tail { transform-origin:76px 75px; animation: tail-sway 2.4s ease-in-out infinite; }
    .ear { transform-origin:center; animation: ear-twitch 5s ease-in-out infinite; }
    .arm-left { transform-origin:46px 74px; animation: arm-left 2.1s ease-in-out infinite; }
    .arm-right { transform-origin:82px 74px; animation: arm-right 2.1s ease-in-out infinite; }
    .blink { transform-origin:center; animation: blink 5.2s ease-in-out infinite; }
    .float-prop { animation: prop-float 2.4s ease-in-out infinite; }
    .pulse { animation: pulse 1.3s ease-in-out infinite; transform-origin:center; }
    .spin { animation: spin 3.2s linear infinite; transform-origin:center; }
    .work-tap { animation: tap 0.55s ease-in-out infinite; transform-origin:64px 95px; }
    .sleep-drift { animation: sleep-drift 3.6s ease-in-out infinite; }
    .music-note { animation: note-rise 1.8s ease-in-out infinite; opacity:0; }
    .music-note.n2 { animation-delay:0.45s; }
    .music-note.n3 { animation-delay:0.9s; }
    .juggle-ball { animation: juggle 1.25s ease-in-out infinite; }
    .juggle-ball.b2 { animation-delay:0.22s; }
    .juggle-ball.b3 { animation-delay:0.44s; }
    .spark { animation: sparkle 1.7s ease-in-out infinite; transform-origin:center; }
    .spark.s2 { animation-delay:0.35s; }
    .spark.s3 { animation-delay:0.7s; }
    .state-error .pet-core { animation: shake 0.28s linear infinite; }
    .state-sweeping .arm-right { animation: sweep 0.9s ease-in-out infinite; }
    .state-react .pet-core { animation: pop 0.75s ease-in-out infinite; }
    .state-sleeping .pet-core, .state-dozing .pet-core, .state-collapsing .pet-core { animation: sleep-breathe 3.8s ease-in-out infinite; }
    @keyframes pet-breathe { 0%,100%{transform:translateY(0) scale(1)} 50%{transform:translateY(-3px) scale(1.025,0.985)} }
    @keyframes sleep-breathe { 0%,100%{transform:translateY(1px) scale(1,0.98)} 50%{transform:translateY(-1px) scale(1.02,1)} }
    @keyframes tail-sway { 0%,100%{transform:rotate(-4deg)} 50%{transform:rotate(9deg)} }
    @keyframes ear-twitch { 0%,92%,100%{transform:rotate(0)} 95%{transform:rotate(-8deg)} }
    @keyframes arm-left { 0%,100%{transform:rotate(0)} 50%{transform:rotate(-7deg)} }
    @keyframes arm-right { 0%,100%{transform:rotate(0)} 50%{transform:rotate(7deg)} }
    @keyframes blink { 0%,91%,100%{transform:scaleY(1)} 94%{transform:scaleY(0.12)} }
    @keyframes prop-float { 0%,100%{transform:translateY(0)} 50%{transform:translateY(-5px)} }
    @keyframes pulse { 0%,100%{transform:scale(1); opacity:.72} 50%{transform:scale(1.18); opacity:1} }
    @keyframes spin { to{transform:rotate(360deg)} }
    @keyframes tap { 0%,100%{transform:translateY(0)} 50%{transform:translateY(2px)} }
    @keyframes sleep-drift { 0%{transform:translate(0,0);opacity:0} 20%{opacity:1} 100%{transform:translate(12px,-22px);opacity:0} }
    @keyframes note-rise { 0%{transform:translateY(8px) scale(.8);opacity:0} 25%{opacity:1} 100%{transform:translateY(-18px) scale(1.08);opacity:0} }
    @keyframes juggle { 0%,100%{transform:translateY(7px)} 50%{transform:translateY(-15px)} }
    @keyframes sparkle { 0%,100%{transform:scale(.75) rotate(0);opacity:.45} 50%{transform:scale(1.15) rotate(16deg);opacity:1} }
    @keyframes shake { 0%,100%{transform:translate(0,0)} 25%{transform:translate(-1px,1px)} 75%{transform:translate(1px,-1px)} }
    @keyframes sweep { 0%,100%{transform:rotate(-16deg)} 50%{transform:rotate(18deg)} }
    @keyframes pop { 0%,100%{transform:scale(1)} 50%{transform:scale(1.055)} }
  </style>
  <ellipse cx="64" cy="116" rx="34" ry="7" fill="#0f172a" opacity=".12"/>
  <g class="state-attention" >
    <g class="pet-core">
      
    <g class="tail" filter="url(#fox-attention-soft-shadow)">
      <path d="M84 79 C116 57 123 91 91 101 C105 88 101 73 86 82 Z" fill="#f39a4a" stroke="#7e4427" stroke-width="4" stroke-linejoin="round"/><path d="M106 72 C119 79 113 95 96 98 C106 90 111 80 106 72 Z" fill="#fff3d7" opacity=".96"/>
    </g>
    <g filter="url(#fox-attention-soft-shadow)">
      <path class="ear" d="M42 31 L31 7 L57 22 Z" fill="#f39a4a" stroke="#7e4427" stroke-width="4" stroke-linejoin="round"/><path class="ear" d="M86 31 L97 7 L71 22 Z" fill="#f39a4a" stroke="#7e4427" stroke-width="4" stroke-linejoin="round"/><path d="M40 22 L37 12 L50 23 Z" fill="#fff3d7" opacity=".92"/><path d="M88 22 L91 12 L78 23 Z" fill="#fff3d7" opacity=".92"/>
      <ellipse cx="64" cy="84" rx="36" ry="28" fill="url(#fox-attention-body)" stroke="#7e4427" stroke-width="4"/>
      <ellipse cx="64" cy="88" rx="21" ry="17" fill="#fff3d7" opacity=".92"/>
      <ellipse cx="52" cy="106" rx="9" ry="6" fill="#fff3d7" stroke="#7e4427" stroke-width="2.6"/>
      <ellipse cx="76" cy="106" rx="9" ry="6" fill="#fff3d7" stroke="#7e4427" stroke-width="2.6"/>
      <circle cx="64" cy="49" r="31" fill="url(#fox-attention-body)" stroke="#7e4427" stroke-width="4"/>
      <circle cx="54" cy="42" r="16" fill="url(#fox-attention-shine)" opacity=".7"/>
      <path d="M42 39 C48 26 58 29 64 37 C70 29 81 26 86 39 C77 35 72 39 64 43 C56 39 51 35 42 39 Z" fill="#fff3d7" opacity=".78"/>
      <ellipse cx="64" cy="61" rx="15" ry="10" fill="#fff3d7" opacity=".98"/>
      
    <g class="blink">
      <ellipse cx="53" cy="50" rx="6.7" ry="7.4" fill="#70391f"/>
      <ellipse cx="75" cy="50" rx="6.7" ry="7.4" fill="#70391f"/>
      <circle cx="55.1" cy="47.6" r="2.1" fill="#fff"/>
      <circle cx="77.1" cy="47.6" r="2.1" fill="#fff"/>
      <circle cx="51.3" cy="52.7" r="1.1" fill="#fff" opacity=".55"/>
      <circle cx="73.3" cy="52.7" r="1.1" fill="#fff" opacity=".55"/>
    </g>
      <path d="M60 58 Q64 62 68 58 Q64 57 60 58 Z" fill="#70391f"/>
      <path d="M55 62 Q64 71 73 62" stroke="#70391f" stroke-width="3" fill="none" stroke-linecap="round"/>
      
      
    <ellipse cx="42" cy="62" rx="5.5" ry="3.8" fill="#ff9aa8" opacity=".5"/>
    <ellipse cx="86" cy="62" rx="5.5" ry="3.8" fill="#ff9aa8" opacity=".5"/>
    </g>
    </g>
    
      <g fill="#facc15">
        <path class="spark" d="M30 28 L33 35 L40 38 L33 41 L30 48 L27 41 L20 38 L27 35 Z"/>
        <path class="spark s2" d="M99 35 L101 40 L106 42 L101 44 L99 50 L96 44 L91 42 L96 40 Z"/>
        <path class="spark s3" d="M91 89 L93 94 L98 96 L93 98 L91 103 L88 98 L83 96 L88 94 Z"/>
      </g>
  </g>
</svg>
