<svg xmlns="http://www.w3.org/2000/svg" viewBox="0 0 64 64" width="64" height="64">
  <!-- 小幽灵 - 像素风格 -->
  <!-- 身体 -->
  <path d="M16,30 Q16,10 32,10 Q48,10 48,30 L48,50 L42,44 L36,50 L30,44 L24,50 L18,44 L16,50 Z" fill="#B39DDB" stroke="#7E57C2" stroke-width="1.5"/>
  <!-- 内部高光 -->
  <path d="M20,28 Q20,14 32,14 Q44,14 44,28 L44,20 Q44,14 32,14 Q20,14 20,20 Z" fill="#D1C4E9" opacity="0.5"/>
  <!-- 眼睛 -->
  <ellipse cx="26" cy="26" rx="5" ry="6" fill="white"/>
  <ellipse cx="38" cy="26" rx="5" ry="6" fill="white"/>
  <ellipse cx="27" cy="27" rx="3" ry="4" fill="#1a1a2e"/>
  <ellipse cx="39" cy="27" rx="3" ry="4" fill="#1a1a2e"/>
  <circle cx="28" cy="25" r="1.2" fill="white"/>
  <circle cx="40" cy="25" r="1.2" fill="white"/>
  <!-- 嘴巴 -->
  <ellipse cx="32" cy="36" rx="3" ry="2" fill="#7E57C2"/>
  <!-- 腮红 -->
  <ellipse cx="20" cy="32" rx="3" ry="2" fill="#F48FB1" opacity="0.5"/>
  <ellipse cx="44" cy="32" rx="3" ry="2" fill="#F48FB1" opacity="0.5"/>

<g class="notice"><style>.notice{animation:notice-pop 1.2s infinite ease-in-out;transform-origin:49px 12px}@keyframes notice-pop{0%,100%{transform:scale(1)}50%{transform:scale(1.12)}}</style><circle cx="50" cy="13" r="8" fill="#f59e0b" stroke="#fff7ed" stroke-width="2"/><rect x="49" y="8" width="2" height="8" rx="1" fill="#111827"/><circle cx="50" cy="18" r="1.2" fill="#111827"/></g>
</svg>